Coordinates
version=1
nRows=9
nColumns=42
inDegrees=yes

Units are S.I. units (second, meters, Newtons, ...)
If the header above contains a line with 'inDegrees', this indicates whether rotational values are in degrees (yes) or radians (no).

endheader
time	pelvis_tilt	pelvis_list	pelvis_rotation	pelvis_tx	pelvis_ty	pelvis_tz	hip_flexion_r	hip_adduction_r	hip_rotation_r	knee_angle_r	knee_adduction_r	knee_angle_r_beta	ankle_angle_r	subtalar_angle_r	mtp_angle_r	hip_flexion_l	hip_adduction_l	hip_rotation_l	knee_angle_l	knee_adduction_l	knee_angle_l_beta	ankle_angle_l	subtalar_angle_l	mtp_angle_l	lumbar_extension	lumbar_bending	lumbar_rotation	arm_flex_r	arm_add_r	arm_rot_r	elbow_flex_r	pro_sup_r	wrist_flex_r	wrist_dev_r	arm_flex_l	arm_add_l	arm_rot_l	elbow_flex_l	pro_sup_l	wrist_flex_l	wrist_dev_l
      2.32000000	      3.73606761	     -3.45151575	     11.72096941	      0.12287522	      0.85471497	     -0.17713559	     16.30298728	      9.63934577	    -10.70602281	     32.66880222	     -4.11964772	      0.57017816	     19.85663524	    -17.33375039	     -7.50195370	     25.59058791	      2.55046911	      9.92094817	     73.25648230	     -4.56476586	      1.27856681	     19.49173212	    -19.51730948	     -7.50195370	    -31.66219863	      6.88789534	     -2.91598203	     14.03890045	     -8.97212857	     -7.06553993	     32.41681334	     90.00000001	      0.00000000	      0.00000000	     16.36661498	    -11.42956573	    -10.47377673	     40.12404333	     90.00000001	      0.00000000	      0.00000000
      2.33000000	      4.19331674	     -3.28999862	     11.61374535	      0.13215391	      0.85588389	     -0.17657693	     14.84495269	      9.86513535	    -10.63818480	     32.31714348	     -4.26815424	      0.56404056	     20.75740260	    -17.06469817	     -7.50175637	     26.03894401	      2.92775627	      8.29963251	     71.59494368	     -5.93215228	      1.24956749	     19.28968466	    -19.50025998	     -7.50175637	    -32.10358622	      6.75473708	     -2.70395246	     14.70358847	     -9.62994606	     -5.48057137	     33.06997307	     90.00000001	      0.00000000	      0.00000000	     16.39104120	    -10.77429462	    -12.01721204	     37.63741702	     90.00000001	      0.00000000	      0.00000000
      2.34000000	      4.48098214	     -3.19214595	     11.53106699	      0.14139444	      0.85656791	     -0.17598785	     13.66171274	     10.07593170	    -10.81318563	     32.06751862	     -4.44366867	      0.55968378	     21.44806395	    -16.85569179	     -7.50172095	     26.61993618	      3.24326319	      7.95864997	     69.86548687	     -6.04531334	      1.21938278	     19.29930251	    -19.49871356	     -7.50172095	    -32.34637651	      6.65715558	     -2.60422033	     15.45066869	     -9.85392052	     -5.34380415	     33.50861659	     90.00000001	      0.00000000	      0.00000000	     15.46086507	    -10.54023118	    -12.10903863	     37.06721140	     90.00000001	      0.00000000	      0.00000000
      2.35000000	      4.83512064	     -3.11058623	     11.37991393	      0.15071524	      0.85727741	     -0.17548305	     12.34008117	     10.35862025	    -10.64555438	     31.71227953	     -4.56290992	      0.55348369	     22.16002546	    -16.54893224	     -7.50163656	     27.08935414	      3.51294024	      7.00921598	     67.93422415	     -6.69412955	      1.18567589	     19.14892898	    -19.47906813	     -7.50163656	    -32.65063020	      6.57616656	     -2.34488978	     16.16437193	    -10.30251651	     -4.75379994	     34.01630950	     90.00000001	      0.00000000	      0.00000000	     14.93024811	    -10.09365531	    -12.64126497	     35.62513726	     90.00000001	      0.00000000	      0.00000000
      2.36000000	      5.13760831	     -3.03417963	     11.24443257	      0.15999695	      0.85772852	     -0.17504498	     11.13366505	     10.61312922	    -10.61387366	     31.45821313	     -4.73438876	      0.54904940	     22.81510085	    -16.36248826	     -7.50151300	     27.54649734	      3.78072585	      6.43655008	     65.85624255	     -6.97370702	      1.14940827	     18.98442756	    -19.46697046	     -7.50151300	    -32.88515277	      6.50338808	     -2.16727921	     16.84621600	    -10.78232722	     -3.87750012	     34.64145774	     90.00000001	      0.00000000	      0.00000000	     14.44360736	     -9.61895778	    -13.64036890	     34.14993896	     90.00000001	      0.00000000	      0.00000000
      2.37000000	      5.43754316	     -2.96244328	     11.12464132	      0.16926294	      0.85800766	     -0.17470970	      9.93872291	     10.84825637	    -10.64699454	     31.21623492	     -4.92084765	      0.54482608	     23.51090849	    -16.12552157	     -7.50147887	     27.94431147	      4.04286273	      6.10225377	     63.65229851	     -7.02316529	      1.11094219	     18.87481905	    -19.45797143	     -7.50147887	    -33.11772599	      6.44670114	     -2.07654922	     17.65764188	    -11.04242759	     -3.72859896	     35.14648482	     90.00000001	      0.00000000	      0.00000000	     13.53510230	     -9.35423520	    -13.82136018	     33.53099174	     90.00000001	      0.00000000	      0.00000000
      2.38000000	      5.77454159	     -2.92536964	     10.94091977	      0.17861934	      0.85825088	     -0.17435722	      8.64761926	     11.15235037	    -10.42047781	     30.87754766	     -5.03329391	      0.53891487	     24.21913704	    -15.83435841	     -7.50143168	     28.26392333	      4.17527320	      5.25868696	     61.28431368	     -7.40576251	      1.06961305	     18.64470763	    -19.44044203	     -7.50143168	    -33.38035924	      6.40926850	     -1.87354480	     18.42211638	    -11.42527877	     -3.39920313	     35.69398159	     90.00000001	      0.00000000	      0.00000000	     12.86580930	     -8.97942603	    -14.22482657	     32.46725539	     90.00000001	      0.00000000	      0.00000000
      2.39000000	      6.03673637	     -2.87452051	     10.77064095	      0.18789027	      0.85821558	     -0.17411045	      7.50831832	     11.37937550	    -10.37492118	     30.66974161	     -5.20390698	      0.53528797	     24.86173734	    -15.62364334	     -7.50139486	     28.60162114	      4.33892955	      4.53184291	     58.78742019	     -7.65906435	      1.02603404	     18.36394133	    -19.42117056	     -7.50139486	    -33.56748560	      6.36493548	     -1.73427758	     19.20057508	    -11.72908050	     -3.12491720	     36.25848075	     90.00000001	      0.00000000	      0.00000000	     12.09495575	     -8.64939197	    -14.59873071	     31.54918529	     90.00000001	      0.00000000	      0.00000000
      2.40000000	      6.25327992	     -2.88243747	     10.53227843	      0.19715975	      0.85797463	     -0.17385939	      6.40508307	     11.68106813	    -10.10965628	     30.41632554	     -5.33737581	      0.53086503	     25.39833990	    -15.44370629	     -7.50125624	     28.99307663	      4.38194554	      3.36471520	     56.21807006	     -8.15484076	      0.98119042	     17.93223712	    -19.39082661	     -7.50125624	    -33.69239285	      6.36249070	     -1.48684347	     19.81467044	    -12.38544907	     -1.75911894	     37.10618187	     90.00000001	      0.00000000	      0.00000000	     12.03778155	     -7.94823121	    -16.87335566	     29.27446171	     90.00000001	      0.00000000	      0.00000000
